<svg width="26" height="26" viewBox="0 0 26 26" fill="none" xmlns="http://www.w3.org/2000/svg">
<g clip-path="url(#clip0_2002_10814)">
<g clip-path="url(#clip1_2002_10814)">
<path fill-rule="evenodd" clip-rule="evenodd" d="M22.8295 9.18551H3.25053V10.4855H22.8295V9.18551ZM2.41003 15.7065H23.6295L25.5195 13.4685V6.78451L23.629 4.54651H2.41003L0.519531 6.78451V13.4685L2.41003 15.7065ZM1.94653 12.9465H24.0931L22.967 14.2795H3.07203L1.94653 12.9465ZM24.0926 11.6465H1.94653V7.30701L3.07253 5.97401H22.9676L24.0935 7.30701L24.0926 11.6465ZM19.806 16.662C19.806 17.844 19.6356 18.163 19.4631 18.487C19.2165 18.949 18.966 19.4185 18.966 20.993H20.081C20.081 19.6875 20.2635 19.346 20.4431 19.0095C20.6835 18.558 20.921 18.113 20.921 16.662H19.806ZM16.781 19.0095C17.0215 18.558 17.2595 18.113 17.2595 16.662H16.1445C16.1445 17.844 15.974 18.163 15.8015 18.487C15.5551 18.949 15.3045 19.4185 15.3045 20.993H16.4195C16.419 19.6875 16.6015 19.346 16.781 19.0095ZM13.119 19.0095C13.3601 18.558 13.5976 18.113 13.5976 16.662H12.482C12.482 17.844 12.3115 18.163 12.139 18.487C11.8926 18.949 11.642 19.419 11.642 20.993H12.757C12.757 19.688 12.9395 19.346 13.119 19.0095ZM9.45703 19.0095C9.69753 18.558 9.93503 18.113 9.93503 16.662H8.81953C8.81953 17.844 8.64853 18.163 8.47603 18.487C8.22953 18.949 7.97903 19.419 7.97903 20.993H9.09403C9.09453 19.688 9.27703 19.346 9.45703 19.0095ZM5.79453 19.0095C6.03503 18.558 6.27253 18.113 6.27253 16.662H5.15753C5.15753 17.844 4.98703 18.163 4.81453 18.487C4.56753 18.949 4.31753 19.419 4.31753 20.993H5.43253C5.43203 19.688 5.61503 19.346 5.79453 19.0095ZM3.25053 8.22951H22.8295V6.92951H3.25053V8.22951Z" fill="#444444"/>
</g>
</g>
<defs>
<clipPath id="clip0_2002_10814">
<rect width="25" height="25" fill="white" transform="translate(0.519531 0.27002)"/>
</clipPath>
<clipPath id="clip1_2002_10814">
<rect width="25" height="25" fill="white" transform="translate(0.519531 0.27002)"/>
</clipPath>
</defs>
</svg>
