<svg width="25" height="25" viewBox="0 0 25 25" fill="none" xmlns="http://www.w3.org/2000/svg">
<g clip-path="url(#clip0_2002_10919)">
<g clip-path="url(#clip1_2002_10919)">
<mask id="mask0_2002_10919" style="mask-type:luminance" maskUnits="userSpaceOnUse" x="0" y="0" width="25" height="25">
<path d="M24.5 0.830078H0.5V24.8301H24.5V0.830078Z" fill="white"/>
</mask>
<g mask="url(#mask0_2002_10919)">
<path fill-rule="evenodd" clip-rule="evenodd" d="M12.5 23.4601C18.3708 23.4601 23.13 18.7009 23.13 12.8301C23.13 6.95929 18.3708 2.20008 12.5 2.20008C6.62921 2.20008 1.87 6.95929 1.87 12.8301C1.87 18.7009 6.62921 23.4601 12.5 23.4601ZM12.5 24.8301C19.1274 24.8301 24.5 19.4575 24.5 12.8301C24.5 6.20266 19.1274 0.830078 12.5 0.830078C5.87258 0.830078 0.5 6.20266 0.5 12.8301C0.5 19.4575 5.87258 24.8301 12.5 24.8301Z" fill="#FF4747"/>
<path d="M5.26781 13.4195C5.08526 13.8563 4.91292 14.2692 4.75443 14.7412C4.36877 15.8937 4.18555 17.0063 4.18555 18.2225V24.143H11.3082V18.2225C11.3082 17.0067 11.1253 15.8919 10.7391 14.7406C10.5829 14.2727 10.4119 13.8634 10.2307 13.4308L10.2185 13.4016C8.8469 10.1235 8.86219 7.12978 8.87836 3.96607C8.88011 3.62243 8.88188 3.27679 8.88188 2.92857V2.25026H8.85234H8.16734V1.56525V1.51514H7.21282V1.56525V2.25026H6.61264V2.92857C6.61264 3.27675 6.6144 3.62233 6.61615 3.9659C6.63231 7.13004 6.64746 10.1237 5.27527 13.4017M5.26781 13.4195L4.6358 13.1553M5.26781 13.4195L5.27527 13.4017M5.27527 13.4017C5.27532 13.4016 5.27523 13.4018 5.27527 13.4017ZM16.6643 9.90722L16.7416 9.75859V9.59105V6.35777H18.0239V9.59175V9.75938L18.1014 9.90807L19.8155 13.2007V24.1451H14.9508V13.2006L16.6643 9.90722Z" stroke="#444444" stroke-width="1.37"/>
<path d="M24.7826 24.1442L25.0653 23.8614L24.7826 23.5786L1.78302 0.579085L1.50472 0.300781L1.22195 0.574547L0.221953 1.54271L-0.0703125 1.82567L0.217534 2.11313L23.2489 25.1131L23.5318 25.3957L23.8145 25.1129L24.7826 24.1442Z" fill="#FF4747" stroke="white" stroke-width="0.8"/>
</g>
</g>
</g>
<defs>
<clipPath id="clip0_2002_10919">
<rect width="24" height="24" fill="white" transform="translate(0.5 0.830078)"/>
</clipPath>
<clipPath id="clip1_2002_10919">
<rect width="24" height="24" fill="white" transform="translate(0.5 0.830078)"/>
</clipPath>
</defs>
</svg>
