<svg width="21" height="20" viewBox="0 0 21 20" fill="none" xmlns="http://www.w3.org/2000/svg">
<g clip-path="url(#clip0_2002_5177)">
<g clip-path="url(#clip1_2002_5177)">
<g clip-path="url(#clip2_2002_5177)">
<path fill-rule="evenodd" clip-rule="evenodd" d="M5.5028 5.82062V9.08942H3.4812V4.05702C8.3632 2.52822 12.6464 2.58462 17.5328 4.06102V9.08983H15.5112V5.81462C11.8724 4.62302 9.13642 4.57902 5.5028 5.82062ZM14.3748 9.08942H6.6392V6.64942C9.39717 5.82662 11.616 5.85542 14.3748 6.65262V9.08942ZM1.8364 16.7494H19.1636L19.3636 18.2063H20.5V9.08942H18.6692V3.22742C12.9508 1.35022 8.0544 1.27822 2.3448 3.23382V9.08942H0.5V18.2063H1.6364L1.8364 16.7494ZM1.6364 14.5118H19.364V15.6134H1.6364V14.5118ZM1.6364 10.2258H19.364V13.375H1.6364V10.2258Z" fill="#444444"/>
</g>
</g>
</g>
<defs>
<clipPath id="clip0_2002_5177">
<rect width="20" height="20" fill="white" transform="translate(0.5)"/>
</clipPath>
<clipPath id="clip1_2002_5177">
<rect width="20" height="20" fill="white" transform="translate(0.5)"/>
</clipPath>
<clipPath id="clip2_2002_5177">
<rect width="20" height="20" fill="white" transform="translate(0.5)"/>
</clipPath>
</defs>
</svg>
