<svg width="21" height="20" viewBox="0 0 21 20" fill="none" xmlns="http://www.w3.org/2000/svg">
<g clip-path="url(#clip0_2002_5183)">
<g clip-path="url(#clip1_2002_5183)">
<g clip-path="url(#clip2_2002_5183)">
<path fill-rule="evenodd" clip-rule="evenodd" d="M8.97558 8.44854H4.83V6.35456C5.5048 6.16136 6.1844 6.06296 6.8676 6.06216C7.5584 6.06136 8.2616 6.15976 8.97558 6.35896V8.44854ZM17.3056 5.52816C16.1968 5.16296 15.2476 4.92856 14.0612 4.93016C12.8892 4.93136 11.9776 5.16096 10.8872 5.53296V8.44812H10.112V5.52816C9.00283 5.16296 8.0544 4.92856 6.8676 4.93016C5.6956 4.93136 4.7836 5.16056 3.6936 5.53296V8.44812H2.9076V4.77616C5.3748 3.97576 7.8696 3.56936 10.3916 3.56696C12.9212 3.56376 15.488 3.96576 18.092 4.78096V8.44854H17.3056V5.52816ZM16.1696 8.44854H12.024V6.35456C12.6988 6.16136 13.378 6.06296 14.0616 6.06216C14.7528 6.06136 15.4556 6.15976 16.1696 6.35896V8.44854ZM19.364 12.7341H1.636V9.58454H19.364V12.7341ZM1.8364 16.1085H19.1636L19.3636 17.5654H20.5V8.44854H19.2288V3.95696C16.29 2.98976 13.4992 2.43096 10.392 2.43496C7.3416 2.43816 4.6452 2.98056 1.7712 3.96216V8.44854H0.5V17.5654H1.636L1.8364 16.1085ZM1.636 13.8705H19.364V14.9721H1.636V13.8705Z" fill="#444444"/>
</g>
</g>
</g>
<defs>
<clipPath id="clip0_2002_5183">
<rect width="20" height="20" fill="white" transform="translate(0.5)"/>
</clipPath>
<clipPath id="clip1_2002_5183">
<rect width="20" height="20" fill="white" transform="translate(0.5)"/>
</clipPath>
<clipPath id="clip2_2002_5183">
<rect width="20" height="20" fill="white" transform="translate(0.5)"/>
</clipPath>
</defs>
</svg>
