<svg width="25" height="25" viewBox="0 0 25 25" fill="none" xmlns="http://www.w3.org/2000/svg">
<g clip-path="url(#clip0_2002_10963)">
<g clip-path="url(#clip1_2002_10963)">
<mask id="mask0_2002_10963" style="mask-type:luminance" maskUnits="userSpaceOnUse" x="0" y="0" width="25" height="25">
<path d="M24.5 0.830078H0.5V24.8301H24.5V0.830078Z" fill="white"/>
</mask>
<g mask="url(#mask0_2002_10963)">
<path d="M12.5 23.3301C18.299 23.3301 23 18.6291 23 12.8301C23 7.03109 18.299 2.33008 12.5 2.33008C6.70101 2.33008 2 7.03109 2 12.8301C2 18.6291 6.70101 23.3301 12.5 23.3301Z" stroke="#FF0000"/>
<path fill-rule="evenodd" clip-rule="evenodd" d="M11.96 13.7957C11.2817 13.7957 10.7245 13.2461 10.7245 12.5597C10.7245 11.8723 11.2837 11.3246 11.96 11.3246C12.6363 11.3246 13.1955 11.8723 13.1955 12.5597C13.1955 13.2461 12.6382 13.7957 11.96 13.7957ZM11.9605 17.4278L11.2381 16.691L10.8881 19.2965L11.96 19.6579L13.0323 19.2965L12.6829 16.691L11.9605 17.4278ZM11.96 15.4709L12.9137 14.4979L13.7974 14.7024L14.54 20.2334L13.0126 20.7489L12.7913 23.9371H11.1291L10.9078 20.7489L9.38096 20.2334L10.123 14.7024L11.0062 14.4979L11.96 15.4709ZM17.9177 9.14011L16.5421 16.427L19.1225 17.2977L19.7312 22.1097L20.3005 17.2958L22.9265 16.4237L21.5211 9.15739L19.7485 11.0078L17.9177 9.14011ZM14.9753 17.3433L16.8152 7.59643L18.0445 7.31275L19.7374 9.03979L21.392 7.31275L22.6145 7.59643L24.4995 17.3448L21.5585 18.3216L20.8947 23.9371H18.5816L17.8712 18.3216L14.9753 17.3433ZM18.9181 3.89899C18.9181 4.34443 19.279 4.70635 19.724 4.70635C20.1689 4.70635 20.5304 4.34395 20.5304 3.89899C20.5304 3.45403 20.1689 3.09307 19.724 3.09307C19.2795 3.09307 18.9181 3.45403 18.9181 3.89899ZM19.724 6.07579C18.5302 6.07579 17.5481 5.10763 17.5481 3.89899C17.5481 2.68795 18.5331 1.72363 19.724 1.72363C20.9317 1.72363 21.8998 2.70475 21.8998 3.89899C21.8998 5.09995 20.9249 6.07579 19.724 6.07579ZM4.72304 5.00587C5.25008 5.00587 5.67824 4.57675 5.67824 4.04971C5.67824 3.52171 5.25056 3.09355 4.72304 3.09355C4.19552 3.09355 3.7664 3.52123 3.7664 4.04971C3.7664 4.57675 4.196 5.00587 4.72304 5.00587ZM7.04768 4.04971C7.04768 5.33323 6.00512 6.37531 4.72256 6.37531C3.44048 6.37531 2.39648 5.33323 2.39648 4.04971C2.39648 2.75035 3.45344 1.72363 4.72256 1.72411C6.00656 1.72411 7.04768 2.76619 7.04768 4.04971Z" fill="#444444"/>
<path fill-rule="evenodd" clip-rule="evenodd" d="M7.29296 15.7272L8.94512 14.7009V8.08992L6.78032 7.26672L4.72352 9.65856L3.57561 8.33013L2.65712 7.2672L0.5 8.08992V14.6097L2.15312 15.7277L3.60608 23.9371H5.83952L7.29296 15.7272ZM7.5752 13.9392V9.03456L7.19216 8.88864L4.72592 11.7566L2.91337 9.65856L2.24864 8.88912L1.86992 9.0336V13.8825L3.40112 14.9179L4.72304 22.3877L6.05024 14.8862L7.5752 13.9392Z" fill="#444444"/>
<path d="M2.86133 1.48486L23.5756 23.1855" stroke="#FF0000"/>
</g>
</g>
</g>
<defs>
<clipPath id="clip0_2002_10963">
<rect width="24" height="24" fill="white" transform="translate(0.5 0.830078)"/>
</clipPath>
<clipPath id="clip1_2002_10963">
<rect width="24" height="24" fill="white" transform="translate(0.5 0.830078)"/>
</clipPath>
</defs>
</svg>
