<svg width="77" height="20" viewBox="0 0 77 20" fill="none" xmlns="http://www.w3.org/2000/svg">
<path d="M1.152 19C0.978667 19 0.831333 18.9393 0.71 18.818C0.588667 18.6967 0.528 18.5493 0.528 18.376V1.45C0.528 1.25933 0.588667 1.10333 0.71 0.982C0.831333 0.860666 0.978667 0.799999 1.152 0.799999H7.496C9.24667 0.799999 10.6853 1.06867 11.812 1.606C12.956 2.14333 13.814 2.94067 14.386 3.998C14.9753 5.05533 15.2787 6.34667 15.296 7.872C15.3307 8.63467 15.348 9.31067 15.348 9.9C15.348 10.4893 15.3307 11.1567 15.296 11.902C15.2613 13.514 14.9667 14.8487 14.412 15.906C13.8573 16.946 13.0167 17.726 11.89 18.246C10.7807 18.7487 9.35933 19 7.626 19H1.152ZM4.142 16.01H7.496C8.46667 16.01 9.25533 15.8713 9.862 15.594C10.4687 15.3167 10.9107 14.8747 11.188 14.268C11.4827 13.644 11.6387 12.8293 11.656 11.824C11.6733 11.304 11.682 10.8533 11.682 10.472C11.6993 10.0733 11.6993 9.68333 11.682 9.302C11.682 8.90333 11.6733 8.45267 11.656 7.95C11.6213 6.52867 11.266 5.48 10.59 4.804C9.914 4.128 8.83933 3.79 7.366 3.79H4.142V16.01ZM22.4233 19.26C21.5219 19.26 20.7073 19.0867 19.9793 18.74C19.2513 18.376 18.6706 17.8993 18.2373 17.31C17.8213 16.7033 17.6133 16.0273 17.6133 15.282C17.6133 14.0687 18.0986 13.1067 19.0693 12.396C20.0573 11.668 21.3573 11.1827 22.9693 10.94L26.5313 10.42V9.874C26.5313 9.146 26.3493 8.58267 25.9853 8.184C25.6213 7.78533 24.9973 7.586 24.1133 7.586C23.4893 7.586 22.9779 7.716 22.5793 7.976C22.1979 8.21867 21.9119 8.548 21.7213 8.964C21.5826 9.18933 21.3833 9.302 21.1233 9.302H19.0693C18.8786 9.302 18.7313 9.25 18.6273 9.146C18.5406 9.042 18.4972 8.90333 18.4972 8.73C18.5146 8.45267 18.6273 8.11467 18.8353 7.716C19.0433 7.31733 19.3726 6.936 19.8233 6.572C20.2739 6.19067 20.8546 5.87 21.5653 5.61C22.2759 5.35 23.1339 5.22 24.1393 5.22C25.2313 5.22 26.1499 5.35867 26.8953 5.636C27.6579 5.896 28.2646 6.25133 28.7153 6.702C29.1659 7.15267 29.4953 7.68133 29.7033 8.288C29.9113 8.89467 30.0153 9.536 30.0153 10.212V18.376C30.0153 18.5493 29.9546 18.6967 29.8333 18.818C29.7119 18.9393 29.5646 19 29.3913 19H27.2853C27.0946 19 26.9386 18.9393 26.8173 18.818C26.7133 18.6967 26.6613 18.5493 26.6613 18.376V17.362C26.4359 17.6913 26.1326 18.0033 25.7513 18.298C25.3699 18.5753 24.9019 18.8093 24.3473 19C23.8099 19.1733 23.1686 19.26 22.4233 19.26ZM23.3073 16.79C23.9139 16.79 24.4599 16.66 24.9453 16.4C25.4479 16.14 25.8379 15.7413 26.1153 15.204C26.4099 14.6493 26.5573 13.956 26.5573 13.124V12.578L23.9573 12.994C22.9346 13.15 22.1719 13.4013 21.6693 13.748C21.1666 14.0947 20.9153 14.5193 20.9153 15.022C20.9153 15.4033 21.0279 15.7327 21.2533 16.01C21.4959 16.27 21.7993 16.4693 22.1633 16.608C22.5273 16.7293 22.9086 16.79 23.3073 16.79ZM39.2008 19.26C37.9528 19.26 36.8521 19.026 35.8988 18.558C34.9628 18.09 34.2261 17.414 33.6888 16.53C33.1688 15.6287 32.8828 14.5453 32.8308 13.28C32.8134 13.02 32.8048 12.682 32.8048 12.266C32.8048 11.8327 32.8134 11.4773 32.8308 11.2C32.8828 9.93467 33.1688 8.86 33.6888 7.976C34.2261 7.07467 34.9628 6.39 35.8988 5.922C36.8521 5.454 37.9528 5.22 39.2008 5.22C40.3101 5.22 41.2548 5.376 42.0348 5.688C42.8148 6 43.4561 6.39 43.9588 6.858C44.4614 7.326 44.8341 7.82 45.0768 8.34C45.3368 8.84267 45.4754 9.302 45.4928 9.718C45.5101 9.90867 45.4494 10.0647 45.3108 10.186C45.1894 10.29 45.0421 10.342 44.8688 10.342H42.5808C42.4074 10.342 42.2688 10.2987 42.1648 10.212C42.0781 10.1253 41.9914 9.99533 41.9048 9.822C41.6448 9.12867 41.2981 8.64333 40.8648 8.366C40.4488 8.07133 39.9114 7.924 39.2528 7.924C38.3861 7.924 37.6928 8.20133 37.1728 8.756C36.6701 9.29333 36.4014 10.1513 36.3668 11.33C36.3321 11.9887 36.3321 12.5953 36.3668 13.15C36.4014 14.346 36.6701 15.2127 37.1728 15.75C37.6928 16.2873 38.3861 16.556 39.2528 16.556C39.9288 16.556 40.4748 16.4173 40.8908 16.14C41.3068 15.8453 41.6448 15.3513 41.9048 14.658C41.9914 14.4847 42.0781 14.3547 42.1648 14.268C42.2688 14.1813 42.4074 14.138 42.5808 14.138H44.8688C45.0421 14.138 45.1894 14.1987 45.3108 14.32C45.4494 14.424 45.5101 14.5713 45.4928 14.762C45.4754 15.074 45.3888 15.4293 45.2328 15.828C45.0941 16.2093 44.8601 16.608 44.5308 17.024C44.2188 17.4227 43.8201 17.7953 43.3348 18.142C42.8494 18.4713 42.2601 18.74 41.5668 18.948C40.8908 19.156 40.1021 19.26 39.2008 19.26ZM48.8543 19C48.6809 19 48.5336 18.9393 48.4123 18.818C48.2909 18.6967 48.2303 18.5493 48.2303 18.376V1.164C48.2303 0.990666 48.2909 0.843333 48.4123 0.722C48.5336 0.600666 48.6809 0.539999 48.8543 0.539999H51.1683C51.3589 0.539999 51.5063 0.600666 51.6103 0.722C51.7316 0.843333 51.7923 0.990666 51.7923 1.164V7.092C52.2603 6.53733 52.8323 6.08667 53.5083 5.74C54.1843 5.39333 55.0163 5.22 56.0043 5.22C57.0616 5.22 57.9803 5.46267 58.7603 5.948C59.5576 6.416 60.1729 7.08333 60.6063 7.95C61.0396 8.81667 61.2563 9.85667 61.2563 11.07V18.376C61.2563 18.5493 61.1956 18.6967 61.0743 18.818C60.9529 18.9393 60.8056 19 60.6323 19H58.2923C58.1189 19 57.9716 18.9393 57.8503 18.818C57.7289 18.6967 57.6683 18.5493 57.6683 18.376V11.226C57.6683 10.2207 57.4169 9.432 56.9143 8.86C56.4289 8.288 55.7183 8.002 54.7823 8.002C53.8809 8.002 53.1529 8.288 52.5983 8.86C52.0609 9.432 51.7923 10.2207 51.7923 11.226V18.376C51.7923 18.5493 51.7316 18.6967 51.6103 18.818C51.5063 18.9393 51.3589 19 51.1683 19H48.8543ZM68.4818 19.26C67.5805 19.26 66.7658 19.0867 66.0378 18.74C65.3098 18.376 64.7292 17.8993 64.2958 17.31C63.8798 16.7033 63.6718 16.0273 63.6718 15.282C63.6718 14.0687 64.1572 13.1067 65.1278 12.396C66.1158 11.668 67.4158 11.1827 69.0278 10.94L72.5898 10.42V9.874C72.5898 9.146 72.4078 8.58267 72.0438 8.184C71.6798 7.78533 71.0558 7.586 70.1718 7.586C69.5478 7.586 69.0365 7.716 68.6378 7.976C68.2565 8.21867 67.9705 8.548 67.7798 8.964C67.6412 9.18933 67.4418 9.302 67.1818 9.302H65.1278C64.9372 9.302 64.7898 9.25 64.6858 9.146C64.5992 9.042 64.5558 8.90333 64.5558 8.73C64.5732 8.45267 64.6858 8.11467 64.8938 7.716C65.1018 7.31733 65.4312 6.936 65.8818 6.572C66.3325 6.19067 66.9132 5.87 67.6238 5.61C68.3345 5.35 69.1925 5.22 70.1978 5.22C71.2898 5.22 72.2085 5.35867 72.9538 5.636C73.7165 5.896 74.3232 6.25133 74.7738 6.702C75.2245 7.15267 75.5538 7.68133 75.7618 8.288C75.9698 8.89467 76.0738 9.536 76.0738 10.212V18.376C76.0738 18.5493 76.0132 18.6967 75.8918 18.818C75.7705 18.9393 75.6232 19 75.4498 19H73.3438C73.1532 19 72.9972 18.9393 72.8758 18.818C72.7718 18.6967 72.7198 18.5493 72.7198 18.376V17.362C72.4945 17.6913 72.1912 18.0033 71.8098 18.298C71.4285 18.5753 70.9605 18.8093 70.4058 19C69.8685 19.1733 69.2272 19.26 68.4818 19.26ZM69.3658 16.79C69.9725 16.79 70.5185 16.66 71.0038 16.4C71.5065 16.14 71.8965 15.7413 72.1738 15.204C72.4685 14.6493 72.6158 13.956 72.6158 13.124V12.578L70.0158 12.994C68.9932 13.15 68.2305 13.4013 67.7278 13.748C67.2252 14.0947 66.9738 14.5193 66.9738 15.022C66.9738 15.4033 67.0865 15.7327 67.3118 16.01C67.5545 16.27 67.8578 16.4693 68.2218 16.608C68.5858 16.7293 68.9672 16.79 69.3658 16.79Z" fill="#444444"/>
</svg>
