<svg width="126" height="26" viewBox="0 0 126 26" fill="none" xmlns="http://www.w3.org/2000/svg">
<g clip-path="url(#clip0_2002_10999)">
<g clip-path="url(#clip1_2002_10999)">
<mask id="mask0_2002_10999" style="mask-type:alpha" maskUnits="userSpaceOnUse" x="-14" y="0" width="60" height="23">
<path fill-rule="evenodd" clip-rule="evenodd" d="M12.0465 4.79717L7.55507 0.500244L-3.08087 10.6757L-13.7168 20.8511H-4.73762L3.65443 12.8241L12.0465 4.79717ZM13.0282 5.73634L-2.75652 20.8511H28.827L13.0282 5.73634Z" fill="#716FFF"/>
<path fill-rule="evenodd" clip-rule="evenodd" d="M45.4669 20.8507L24.7226 0.5L20.2616 4.87647L36.9786 20.8507H45.4669ZM34.9956 20.8507L19.2917 5.82792L3.97852 20.8507H34.9956Z" fill="#716FFF"/>
<path fill-rule="evenodd" clip-rule="evenodd" d="M16.1456 2.77808L-4.16406 22.2082H36.4403L16.1456 2.77808Z" fill="#716FFF"/>
</mask>
<g mask="url(#mask0_2002_10999)">
<path fill-rule="evenodd" clip-rule="evenodd" d="M30.1951 6.79905C30.1951 14.8394 23.7704 21.3573 15.8452 21.3573C7.91991 21.3573 1.49512 14.8394 1.49512 6.79905C1.49512 -1.2413 7.91991 -7.75928 15.8452 -7.75928C23.7704 -7.75928 30.1951 -1.2413 30.1951 6.79905ZM12.7697 9.37296H15.4499V12.0921H12.7697V9.37296ZM15.4499 12.8939H12.7697V15.6131H15.4499V12.8939ZM16.2402 9.37296H18.9204V12.0921H16.2402V9.37296ZM18.9204 12.8939H16.2402V15.6131H18.9204V12.8939Z" fill="#FF7E47"/>
</g>
<path d="M45.3041 19.797C48.6521 19.797 51.3791 17.934 51.3791 14.316V0.599976H49.9211V14.316C49.9211 17.016 48.0581 18.42 45.3041 18.42C43.1711 18.42 41.5511 17.61 40.8761 15.909L39.6611 16.638C40.5791 18.717 42.7121 19.797 45.3041 19.797ZM61.5541 19.797C65.4691 19.797 68.6281 16.746 68.6281 12.75C68.6281 8.75398 65.4691 5.70298 61.5541 5.70298C57.6121 5.70298 54.4531 8.75398 54.4531 12.75C54.4531 16.746 57.6121 19.797 61.5541 19.797ZM61.5541 18.501C58.3411 18.501 55.8301 15.963 55.8301 12.75C55.8301 9.53698 58.3411 6.99898 61.5541 6.99898C64.7671 6.99898 67.2511 9.53698 67.2511 12.75C67.2511 15.963 64.7671 18.501 61.5541 18.501ZM81.2316 5.99998L76.5336 18.015L71.0796 5.99998H69.6216L75.8316 19.743L75.5346 20.472C74.6976 22.443 73.3206 23.793 71.5116 23.631V24.9C73.8336 25.089 75.8316 23.334 76.8576 20.742L82.6896 5.99998H81.2316ZM92.0253 7.32298V5.99998H88.0023V2.21998L86.6253 2.62498V5.99998H83.6553V7.32298H86.6253V16.098C86.6253 19.176 88.4883 20.04 92.0253 19.5V18.285C89.2713 18.528 88.0023 18.474 88.0023 16.098V7.32298H92.0253ZM100.63 19.797C104.545 19.797 107.704 16.746 107.704 12.75C107.704 8.75398 104.545 5.70298 100.63 5.70298C96.6883 5.70298 93.5293 8.75398 93.5293 12.75C93.5293 16.746 96.6883 19.797 100.63 19.797ZM100.63 18.501C97.4173 18.501 94.9063 15.963 94.9063 12.75C94.9063 9.53698 97.4173 6.99898 100.63 6.99898C103.843 6.99898 106.327 9.53698 106.327 12.75C106.327 15.963 103.843 18.501 100.63 18.501ZM118.108 5.70298C115.489 5.70298 113.41 7.05298 112.303 9.13198V5.99998H110.953V24.9H112.303V16.368C113.41 18.447 115.489 19.797 118.108 19.797C121.969 19.797 125.101 16.746 125.101 12.75C125.101 8.75398 121.969 5.70298 118.108 5.70298ZM118.027 18.501C114.814 18.501 112.303 15.963 112.303 12.75C112.303 9.53698 114.814 6.99898 118.027 6.99898C121.24 6.99898 123.751 9.53698 123.751 12.75C123.751 15.963 121.24 18.501 118.027 18.501Z" fill="black"/>
</g>
</g>
<defs>
<clipPath id="clip0_2002_10999">
<rect width="125" height="25" fill="white" transform="translate(0.5 0.5)"/>
</clipPath>
<clipPath id="clip1_2002_10999">
<rect width="125" height="25" fill="white" transform="translate(0.5 0.5)"/>
</clipPath>
</defs>
</svg>
