<svg width="25" height="25" viewBox="0 0 25 25" fill="none" xmlns="http://www.w3.org/2000/svg">
<g clip-path="url(#clip0_2002_10937)">
<g clip-path="url(#clip1_2002_10937)">
<g clip-path="url(#clip2_2002_10937)">
<mask id="mask0_2002_10937" style="mask-type:luminance" maskUnits="userSpaceOnUse" x="0" y="0" width="25" height="25">
<path d="M24.5 0.830078H0.5V24.8301H24.5V0.830078Z" fill="white"/>
</mask>
<g mask="url(#mask0_2002_10937)">
<path d="M20.1267 7.28425C20.4964 6.91487 20.9672 6.70431 21.5004 6.70431C22.034 6.70431 22.505 6.91513 22.8748 7.28494L22.9888 7.39896L23.0923 7.29039L22.9892 7.17802C22.5167 6.76184 22.0233 6.57431 21.5004 6.57431C21.012 6.57431 20.5339 6.7581 20.0514 7.18703L14.9377 12.3099L15.013 12.3797L20.1267 7.28425ZM20.1267 7.28425C20.1265 7.28448 20.127 7.28402 20.1267 7.28425ZM11.0436 5.4347L10.9603 5.35817L11.0504 5.26805L11.1104 5.32802C11.5377 5.8174 11.7254 6.30624 11.7254 6.82931C11.7254 7.32127 11.5389 7.80289 11.1032 8.28892L11.0293 8.36943L10.9603 8.30045L11.0436 8.22392L11.0544 8.21402L11.0648 8.20368C11.4389 7.82953 11.5954 7.34112 11.5954 6.82931C11.5954 6.3175 11.4389 5.82908 11.0648 5.45494L11.0544 5.4446L11.0436 5.4347ZM16.0646 4.50678L16.0502 4.49038L16.0348 4.47494L14.9191 3.35931L15.0304 3.24805L16.1324 4.35008C16.5523 4.82275 16.7354 5.31883 16.7354 5.82931C16.7354 6.33709 16.5543 6.82357 16.133 7.29785L13.0207 10.393L12.9471 10.3135L16.0371 7.17138C16.406 6.80103 16.5654 6.30609 16.5654 5.82931C16.5654 5.33105 16.3936 4.88058 16.0646 4.50678ZM15.2506 17.5483L3.63184 21.6978L7.7814 10.0791L15.2506 17.5483ZM16.9391 14.2793L18.0291 13.1893C18.5225 12.7584 19.0019 12.5743 19.5004 12.5743C20.0038 12.5743 20.4999 12.762 20.9766 13.1846L22.083 14.3187L22.0005 14.3996L20.8623 13.2825C20.495 12.9164 20.0257 12.7043 19.5004 12.7043C18.962 12.7043 18.5143 12.9267 18.156 13.285L17.0504 14.3906L16.9391 14.2793Z" stroke="#444444" stroke-width="1.37"/>
<path fill-rule="evenodd" clip-rule="evenodd" d="M12.5 23.4601C18.3708 23.4601 23.13 18.7009 23.13 12.8301C23.13 6.95929 18.3708 2.20008 12.5 2.20008C6.62921 2.20008 1.87 6.95929 1.87 12.8301C1.87 18.7009 6.62921 23.4601 12.5 23.4601ZM12.5 24.8301C19.1274 24.8301 24.5 19.4575 24.5 12.8301C24.5 6.20266 19.1274 0.830078 12.5 0.830078C5.87258 0.830078 0.5 6.20266 0.5 12.8301C0.5 19.4575 5.87258 24.8301 12.5 24.8301Z" fill="#FF4747"/>
<path d="M1.1855 0.547245L0.217341 1.51541L0.233482 1.53155L0.221953 1.54271L-0.0703125 1.82567L0.217534 2.11313L23.2489 25.1131L23.5318 25.3957L23.8145 25.1129L24.7826 24.1442L25.0653 23.8614L24.7826 23.5786L1.78302 0.579085L1.50472 0.300781L1.22195 0.574547L1.2173 0.579048L1.1855 0.547245Z" fill="#FF4747" stroke="white" stroke-width="0.8"/>
</g>
</g>
</g>
</g>
<defs>
<clipPath id="clip0_2002_10937">
<rect width="24" height="24" fill="white" transform="translate(0.5 0.830078)"/>
</clipPath>
<clipPath id="clip1_2002_10937">
<rect width="24" height="24" fill="white" transform="translate(0.5 0.830078)"/>
</clipPath>
<clipPath id="clip2_2002_10937">
<rect width="24" height="24" fill="white" transform="translate(0.5 0.830078)"/>
</clipPath>
</defs>
</svg>
