<svg width="26" height="26" viewBox="0 0 26 26" fill="none" xmlns="http://www.w3.org/2000/svg">
<g clip-path="url(#clip0_2002_10830)">
<g clip-path="url(#clip1_2002_10830)">
<path d="M3.64453 2.61377C2.35285 2.61377 1.30078 3.66584 1.30078 4.95752V15.5044C1.30078 16.7961 2.35285 17.8481 3.64453 17.8481H7.38902L5.71207 19.5251C5.55956 19.6776 5.55956 19.9249 5.71207 20.0775C5.86461 20.23 6.11191 20.23 6.26445 20.0775L8.49375 17.8482H11.4402L11.721 19.4878C11.806 19.984 12.1672 20.3768 12.6289 20.5215V21.3638C12.6289 22.2221 13.3331 22.9263 14.1914 22.9263H21.6133C22.4716 22.9263 23.1758 22.2221 23.1758 21.3638V17.7116C24.0842 17.3886 24.7383 16.5219 24.7383 15.5044V4.95756C24.7383 3.66588 23.6862 2.61381 22.3945 2.61381L3.64453 2.61377ZM22.3945 3.39502C23.2669 3.39502 23.957 4.08514 23.957 4.95752V14.7231C23.957 14.8267 23.9159 14.9261 23.8426 14.9994C23.7694 15.0726 23.67 15.1138 23.5664 15.1138H15.4578C15.4099 15.1138 15.3625 15.1033 15.319 15.0831C15.2755 15.0629 15.2369 15.0334 15.206 14.9967C15.1751 14.9601 15.1526 14.9171 15.14 14.8708C15.1274 14.8245 15.1251 14.776 15.1332 14.7288L15.6035 11.9849C16.1677 11.3613 16.5351 10.5503 16.5351 9.64501C16.5351 7.70802 14.9564 6.12939 13.0194 6.12939C11.0824 6.12939 9.50381 7.70802 9.50381 9.64501C9.50381 10.5504 9.87115 11.3613 10.4354 11.9849L10.9057 14.7288C10.9138 14.776 10.9115 14.8245 10.8989 14.8708C10.8863 14.9171 10.8638 14.9601 10.8329 14.9967C10.8019 15.0334 10.7634 15.0629 10.7199 15.0831C10.6764 15.1033 10.629 15.1138 10.5811 15.1138H2.47246C2.36882 15.1138 2.26942 15.0726 2.19614 14.9993C2.12285 14.926 2.08168 14.8266 2.08168 14.723V4.95736C2.08168 4.08498 2.7718 3.39486 3.64418 3.39486L22.3945 3.39502ZM11.2289 11.9888H14.8102L13.5475 19.3556C13.503 19.6154 13.2832 19.8011 13.0195 19.8011C12.7558 19.8011 12.5361 19.6154 12.4916 19.3556L11.2289 11.9888ZM14.5987 17.8481H17.5452L19.7745 20.0774C19.927 20.2299 20.1743 20.2299 20.3268 20.0774C20.4793 19.9249 20.4793 19.6776 20.3268 19.5251L18.6499 17.8481H22.3944V21.3637C22.3944 21.7998 22.0492 22.145 21.6131 22.145H14.1912C13.7552 22.145 13.41 21.7998 13.41 21.3637V20.5215C13.8717 20.3767 14.2329 19.984 14.3179 19.4877L14.5987 17.8481Z" fill="black"/>
</g>
</g>
<defs>
<clipPath id="clip0_2002_10830">
<rect width="25" height="25" fill="white" transform="translate(0.519531 0.27002)"/>
</clipPath>
<clipPath id="clip1_2002_10830">
<rect width="25" height="25" fill="white" transform="translate(0.519531 0.27002)"/>
</clipPath>
</defs>
</svg>
