<svg width="27" height="27" viewBox="0 0 27 27" fill="none" xmlns="http://www.w3.org/2000/svg">
<g clip-path="url(#clip0_2002_10789)">
<g clip-path="url(#clip1_2002_10789)">
<path d="M3.49609 15.974L9.49859 10.8289L15.5011 15.974" stroke="#323232" stroke-width="1.5" stroke-linecap="round" stroke-linejoin="round"/>
<path d="M14.6434 22.8338V10.8289H12.0703V13.0298" stroke="#323232" stroke-width="1.5" stroke-linecap="round" stroke-linejoin="round"/>
<path d="M7.99805 22.8337V18.546H10.9993V22.8337" stroke="#323232" stroke-width="1.5" stroke-linecap="round" stroke-linejoin="round"/>
<path d="M4.35352 15.2386V22.8337" stroke="#323232" stroke-width="1.5" stroke-linecap="round" stroke-linejoin="round"/>
<path d="M23.5045 22.8337H3.49609" stroke="#323232" stroke-width="1.5" stroke-linecap="round" stroke-linejoin="round"/>
<path d="M20.9961 19.8325V22.8337" stroke="#323232" stroke-width="1.5" stroke-linecap="round" stroke-linejoin="round"/>
<path d="M21.004 12.8297H21.002C19.6212 12.8297 18.502 13.949 18.502 15.3297V17.3326C18.502 18.7133 19.6212 19.8326 21.002 19.8326H21.004C22.3847 19.8326 23.504 18.7133 23.504 17.3326V15.3297C23.504 13.949 22.3847 12.8297 21.004 12.8297Z" stroke="#323232" stroke-width="1.5" stroke-linecap="round" stroke-linejoin="round"/>
<path d="M18.5018 8.82795C19.6068 8.82795 20.5026 7.93215 20.5026 6.82712C20.5026 5.7221 19.6068 4.82629 18.5018 4.82629C17.3968 4.82629 16.501 5.7221 16.501 6.82712C16.501 7.93215 17.3968 8.82795 18.5018 8.82795Z" stroke="#323232" stroke-width="1.5" stroke-linecap="round" stroke-linejoin="round"/>
</g>
</g>
<defs>
<clipPath id="clip0_2002_10789">
<rect width="26" height="26" fill="white" transform="translate(0.5 0.830078)"/>
</clipPath>
<clipPath id="clip1_2002_10789">
<rect width="26" height="26" fill="white" transform="translate(0.5 0.830078)"/>
</clipPath>
</defs>
</svg>
