<svg width="26" height="26" viewBox="0 0 26 26" fill="none" xmlns="http://www.w3.org/2000/svg">
<g clip-path="url(#clip0_2002_10845)">
<g clip-path="url(#clip1_2002_10845)">
<g clip-path="url(#clip2_2002_10845)">
<path fill-rule="evenodd" clip-rule="evenodd" d="M10.1651 16.6961C11.2036 16.6961 12.2156 16.2661 12.9011 15.482C13.5871 16.2655 14.5966 16.6961 15.6361 16.6961C16.6352 16.6961 17.6021 16.3015 18.2886 15.574C19.0777 16.5461 20.3836 17.0125 21.6171 16.8445L21.4496 15.595C20.4106 15.737 19.2841 15.2045 18.9336 14.172L17.7566 14.125C17.3977 14.9575 16.5227 15.432 15.6366 15.432C14.7261 15.432 13.8261 14.932 13.4891 14.06H12.3146C11.9771 14.9325 11.0771 15.432 10.1656 15.432C9.25512 15.432 8.35513 14.932 8.01813 14.06H6.84313C6.48213 14.994 5.48162 15.4961 4.51113 15.4265L4.42263 16.6855C5.54463 16.7661 6.68763 16.3336 7.43213 15.483C8.11763 16.2665 9.12663 16.6961 10.1651 16.6961ZM25.1486 10.2115H0.890625V25.27H25.1491L25.1486 10.2115ZM23.7161 23.8375H2.32313V11.6436H23.7166L23.7161 23.8375ZM10.3706 8.81102H15.7296V9.54252H17.1621V3.08852L18.9671 1.28302L17.9546 0.27002L15.7296 2.49502V4.54602H10.3706V3.08852L12.1766 1.28302L11.1636 0.27002L8.93862 2.49502V9.54252H10.3706V8.81102ZM10.3706 5.97852H15.7296V7.37902H10.3706V5.97852ZM10.1651 21.239C11.2041 21.239 12.2152 20.8086 12.9011 20.0245C13.5866 20.808 14.5971 21.239 15.6361 21.239C16.6391 21.239 17.6027 20.8415 18.2886 20.115C18.5546 20.443 18.8802 20.7145 19.2431 20.9236C19.9466 21.3295 20.7941 21.4995 21.6171 21.387L21.4491 20.1375C20.8991 20.213 20.3356 20.1005 19.8702 19.8325C19.4427 19.5865 19.1002 19.205 18.9331 18.715L17.7561 18.668C17.3971 19.5036 16.5236 19.975 15.6361 19.975C14.7261 19.975 13.8252 19.4745 13.4886 18.603H12.3141C11.9766 19.475 11.0761 19.975 10.1651 19.975C9.25463 19.975 8.35463 19.4745 8.01763 18.603H6.84263C6.48163 19.537 5.48063 20.039 4.51063 19.9695L4.42213 21.2286C5.54263 21.309 6.68863 20.8761 7.43163 20.0265C8.11763 20.8095 9.12663 21.239 10.1651 21.239Z" fill="#444444"/>
</g>
</g>
</g>
<defs>
<clipPath id="clip0_2002_10845">
<rect width="25" height="25" fill="white" transform="translate(0.519531 0.27002)"/>
</clipPath>
<clipPath id="clip1_2002_10845">
<rect width="25" height="25" fill="white" transform="translate(0.519531 0.27002)"/>
</clipPath>
<clipPath id="clip2_2002_10845">
<rect width="25" height="25" fill="white" transform="translate(0.519531 0.27002)"/>
</clipPath>
</defs>
</svg>
