<svg width="25" height="25" viewBox="0 0 25 25" fill="none" xmlns="http://www.w3.org/2000/svg">
<g clip-path="url(#clip0_2002_10766)">
<g clip-path="url(#clip1_2002_10766)">
<g clip-path="url(#clip2_2002_10766)">
<path fill-rule="evenodd" clip-rule="evenodd" d="M10.6707 10.9683H5.696V8.4555C6.50576 8.22366 7.32128 8.10558 8.14112 8.10462C8.97008 8.10366 9.81392 8.22174 10.6707 8.46078V10.9683ZM20.6667 7.46382C19.3362 7.02558 18.1971 6.7443 16.7734 6.74622C15.367 6.74766 14.2731 7.02318 12.9646 7.46958V10.9678H12.0344V7.46382C10.7034 7.02558 9.56528 6.7443 8.14112 6.74622C6.73472 6.74766 5.64032 7.0227 4.33232 7.46958V10.9678H3.38912V6.56142C6.34976 5.60094 9.34352 5.11326 12.3699 5.11038C15.4054 5.10654 18.4856 5.58894 21.6104 6.56718V10.9683H20.6667V7.46382ZM19.3035 10.9683H14.3288V8.4555C15.1386 8.22366 15.9536 8.10558 16.7739 8.10462C17.6034 8.10366 18.4467 8.22174 19.3035 8.46078V10.9683ZM23.1368 16.111H1.8632V12.3315H23.1368V16.111ZM2.10368 20.1603H22.8963L23.1363 21.9085H24.5V10.9683H22.9746V5.57838C19.448 4.41774 16.099 3.74718 12.3704 3.75198C8.70992 3.75582 5.47424 4.4067 2.02544 5.58462V10.9683H0.5V21.9085H1.8632L2.10368 20.1603ZM1.8632 17.4747H23.1368V18.7966H1.8632V17.4747Z" fill="#444444"/>
</g>
</g>
</g>
<defs>
<clipPath id="clip0_2002_10766">
<rect width="24" height="24" fill="white" transform="translate(0.5 0.830078)"/>
</clipPath>
<clipPath id="clip1_2002_10766">
<rect width="24" height="24" fill="white" transform="translate(0.5 0.830078)"/>
</clipPath>
<clipPath id="clip2_2002_10766">
<rect width="24" height="24" fill="white" transform="translate(0.5 0.830078)"/>
</clipPath>
</defs>
</svg>
