<svg width="46" height="23" viewBox="0 0 46 23" fill="none" xmlns="http://www.w3.org/2000/svg">
<mask id="mask0_2002_4135" style="mask-type:alpha" maskUnits="userSpaceOnUse" x="-14" y="0" width="60" height="23">
<path fill-rule="evenodd" clip-rule="evenodd" d="M12.4335 5.04656L7.94209 0.749634L-2.69385 10.9251L-13.3298 21.1005H-4.3506L4.04145 13.0735L12.4335 5.04656ZM13.4152 5.98573L-2.3695 21.1005H29.214L13.4152 5.98573Z" fill="#716FFF"/>
<path fill-rule="evenodd" clip-rule="evenodd" d="M45.8539 21.1001L25.1096 0.74939L20.6486 5.12586L37.3656 21.1001H45.8539ZM35.3826 21.1001L19.6787 6.07731L4.36552 21.1001H35.3826Z" fill="#716FFF"/>
<path fill-rule="evenodd" clip-rule="evenodd" d="M16.5324 3.02747L-3.77724 22.4576H36.8271L16.5324 3.02747Z" fill="#716FFF"/>
</mask>
<g mask="url(#mask0_2002_4135)">
<path fill-rule="evenodd" clip-rule="evenodd" d="M30.5822 7.04844C30.5822 15.0888 24.1575 21.6067 16.2323 21.6067C8.30706 21.6067 1.88226 15.0888 1.88226 7.04844C1.88226 -0.991907 8.30706 -7.50989 16.2323 -7.50989C24.1575 -7.50989 30.5822 -0.991907 30.5822 7.04844ZM13.1568 9.62235H15.837V12.3415H13.1568V9.62235ZM15.837 13.1433H13.1568V15.8625H15.837V13.1433ZM16.6273 9.62235H19.3075V12.3415H16.6273V9.62235ZM19.3075 13.1433H16.6273V15.8625H19.3075V13.1433Z" fill="#FF7E47"/>
</g>
</svg>
