<svg width="18" height="17" viewBox="0 0 18 17" fill="none" xmlns="http://www.w3.org/2000/svg">
<g clip-path="url(#clip0_2002_5107)">
<g clip-path="url(#clip1_2002_5107)">
<path d="M15.1028 7.02727C15.1028 11.7152 9.4362 15.7333 9.4362 15.7333C9.4362 15.7333 3.76953 11.7152 3.76953 7.02727C3.76953 5.42874 4.36655 3.89568 5.42926 2.76535C6.49196 1.63501 7.9333 1 9.4362 1C10.9391 1 12.3804 1.63501 13.4431 2.76535C14.5058 3.89568 15.1028 5.42874 15.1028 7.02727Z" stroke="#FF7E47" stroke-width="1.5" stroke-linecap="round" stroke-linejoin="round"/>
<path d="M9.43659 8.9333C10.6884 8.9333 11.7032 7.91848 11.7032 6.66663C11.7032 5.41478 10.6884 4.39996 9.43659 4.39996C8.18474 4.39996 7.16992 5.41478 7.16992 6.66663C7.16992 7.91848 8.18474 8.9333 9.43659 8.9333Z" stroke="#FF7E47" stroke-width="1.5" stroke-linecap="round" stroke-linejoin="round"/>
</g>
</g>
<defs>
<clipPath id="clip0_2002_5107">
<rect width="17" height="17" fill="white" transform="translate(0.769531)"/>
</clipPath>
<clipPath id="clip1_2002_5107">
<rect width="17" height="17" fill="white" transform="translate(0.769531)"/>
</clipPath>
</defs>
</svg>
