<svg width="25" height="25" viewBox="0 0 25 25" fill="none" xmlns="http://www.w3.org/2000/svg">
<g clip-path="url(#clip0_2002_10948)">
<g clip-path="url(#clip1_2002_10948)">
<g clip-path="url(#clip2_2002_10948)">
<mask id="mask0_2002_10948" style="mask-type:luminance" maskUnits="userSpaceOnUse" x="0" y="0" width="25" height="25">
<path d="M24.5 0.830078H0.5V24.8301H24.5V0.830078Z" fill="white"/>
</mask>
<g mask="url(#mask0_2002_10948)">
<path fill-rule="evenodd" clip-rule="evenodd" d="M12.5 23.4601C18.3708 23.4601 23.13 18.7009 23.13 12.8301C23.13 6.95929 18.3708 2.20008 12.5 2.20008C6.62921 2.20008 1.87 6.95929 1.87 12.8301C1.87 18.7009 6.62921 23.4601 12.5 23.4601ZM12.5 24.8301C19.1274 24.8301 24.5 19.4575 24.5 12.8301C24.5 6.20266 19.1274 0.830078 12.5 0.830078C5.87258 0.830078 0.5 6.20266 0.5 12.8301C0.5 19.4575 5.87258 24.8301 12.5 24.8301Z" fill="#FF4747"/>
<path d="M2.5 16.0301V9.63008C7.66564 10.2762 10.5412 9.84971 15.5 4.83008V20.8301C10.2406 17.1133 7.39937 16.25 2.5 16.0301Z" stroke="#444444" stroke-width="1.37"/>
<path d="M17.5 7.33008L23 5.33008" stroke="#444444"/>
<path d="M17.5 17.8301L23 19.8301" stroke="#444444"/>
<path d="M18 12.8301H23" stroke="#444444"/>
<path d="M24.7826 24.1442L25.0653 23.8614L24.7826 23.5786L1.78302 0.579085L1.50472 0.300781L1.22195 0.574547L0.221953 1.54271L-0.0703125 1.82567L0.217534 2.11313L23.2489 25.1131L23.5318 25.3957L23.8145 25.1129L24.7826 24.1442Z" fill="#FF4747" stroke="white" stroke-width="0.8"/>
</g>
</g>
</g>
</g>
<defs>
<clipPath id="clip0_2002_10948">
<rect width="24" height="24" fill="white" transform="translate(0.5 0.830078)"/>
</clipPath>
<clipPath id="clip1_2002_10948">
<rect width="24" height="24" fill="white" transform="translate(0.5 0.830078)"/>
</clipPath>
<clipPath id="clip2_2002_10948">
<rect width="24" height="24" fill="white" transform="translate(0.5 0.830078)"/>
</clipPath>
</defs>
</svg>
