<svg width="25" height="25" viewBox="0 0 25 25" fill="none" xmlns="http://www.w3.org/2000/svg">
<g clip-path="url(#clip0_2002_10930)">
<g clip-path="url(#clip1_2002_10930)">
<g clip-path="url(#clip2_2002_10930)">
<path fill-rule="evenodd" clip-rule="evenodd" d="M6.81968 18.7945H15.2629L15.9867 24.3543H19.209V10.6186L23.1234 10.7837L24.5 7.78279L20.0014 4.99975L18.8475 2.11159L17.9542 3.78391L16.965 1.30566L11.7406 11.4538H5.2184L0.5 7.05895L2.8736 14.185V24.3543H6.09584L6.81968 18.7945ZM4.67936 12.8238H12.5763L16.8075 4.60471L17.7747 7.02775L18.668 5.35495L18.8965 5.92759L22.7504 8.31175L22.2618 9.37687L17.839 9.19015V22.9849H17.1896L16.4658 17.425H5.6168L4.89248 22.9849H4.24304V13.9633L3.49664 11.7222L4.67936 12.8238Z" fill="#444444"/>
<path fill-rule="evenodd" clip-rule="evenodd" d="M12.5 23.4601C18.3708 23.4601 23.13 18.7009 23.13 12.8301C23.13 6.95929 18.3708 2.20008 12.5 2.20008C6.62921 2.20008 1.87 6.95929 1.87 12.8301C1.87 18.7009 6.62921 23.4601 12.5 23.4601ZM12.5 24.8301C19.1274 24.8301 24.5 19.4575 24.5 12.8301C24.5 6.20266 19.1274 0.830078 12.5 0.830078C5.87258 0.830078 0.5 6.20266 0.5 12.8301C0.5 19.4575 5.87258 24.8301 12.5 24.8301Z" fill="#FF4747"/>
<path d="M24.4995 23.8615L23.5314 24.8301L0.5 1.8301L1.5 0.861938L24.4995 23.8615Z" fill="#FF4747"/>
</g>
</g>
</g>
<defs>
<clipPath id="clip0_2002_10930">
<rect width="24" height="24" fill="white" transform="translate(0.5 0.830078)"/>
</clipPath>
<clipPath id="clip1_2002_10930">
<rect width="24" height="24" fill="white" transform="translate(0.5 0.830078)"/>
</clipPath>
<clipPath id="clip2_2002_10930">
<rect width="24" height="24" fill="white" transform="translate(0.5 0.830078)"/>
</clipPath>
</defs>
</svg>
