<svg width="25" height="25" viewBox="0 0 25 25" fill="none" xmlns="http://www.w3.org/2000/svg">
<g clip-path="url(#clip0_2002_10913)">
<g clip-path="url(#clip1_2002_10913)">
<g clip-path="url(#clip2_2002_10913)">
<path fill-rule="evenodd" clip-rule="evenodd" d="M15.1457 7.41331C16.1941 7.86739 17.3101 7.88515 18.4309 7.89235C19.3294 7.89811 20.551 7.87795 21.3805 8.25187C22.9659 8.96707 23.1061 11.5063 23.1301 12.9669H24.4995C24.3958 6.56179 21.4213 6.54211 18.44 6.52291C16.1941 6.50899 13.9414 6.49315 13.5877 2.11267H12.2182L12.2345 2.35699C12.4208 4.42483 13.0851 6.52099 15.1457 7.41331ZM22.3184 13.9058H15.451L16.82 15.2752H20.9489V16.1743H17.7195L19.0889 17.5442H22.3184V13.9058ZM16.82 15.2752L15.451 13.9058H0.5V17.5442H19.0889L17.7195 16.1743H1.86944V15.2752H16.82ZM23.1296 13.9058V17.5447H24.4995L24.499 13.9058H23.1296ZM15.9305 9.95971C17.0528 9.96403 19.0424 9.91075 19.9966 10.5688C20.7627 11.0968 20.9173 12.1082 20.9489 12.9664H22.3184C22.1585 8.61571 19.1307 8.60227 15.9358 8.58979C13.6141 8.58067 11.287 8.57107 10.6913 6.28051H9.27728L9.3656 6.62515C10.1821 9.81619 13.2253 9.94915 15.9305 9.95971Z" fill="#444444"/>
</g>
</g>
</g>
<defs>
<clipPath id="clip0_2002_10913">
<rect width="24" height="24" fill="white" transform="translate(0.5 0.830078)"/>
</clipPath>
<clipPath id="clip1_2002_10913">
<rect width="24" height="24" fill="white" transform="translate(0.5 0.830078)"/>
</clipPath>
<clipPath id="clip2_2002_10913">
<rect width="24" height="24" fill="white" transform="translate(0.5 0.830078)"/>
</clipPath>
</defs>
</svg>
