<svg width="26" height="26" viewBox="0 0 26 26" fill="none" xmlns="http://www.w3.org/2000/svg">
<g clip-path="url(#clip0_2002_10808)">
<g clip-path="url(#clip1_2002_10808)">
<g clip-path="url(#clip2_2002_10808)">
<path fill-rule="evenodd" clip-rule="evenodd" d="M10.9476 17.5187C12.262 16.9282 13.7765 16.9287 15.091 17.5191L13.0195 19.5907L10.9476 17.5187ZM13.0206 14.1412C15.034 14.1412 16.9035 14.8852 18.3885 16.2391L19.3945 15.2327C17.702 13.6127 15.354 12.7166 13.0195 12.7166C10.579 12.7162 8.44403 13.6052 6.64103 15.2296L7.64553 16.2341C9.11653 14.8957 11.0295 14.1412 13.0206 14.1412ZM13.024 11.2212C15.8595 11.2212 18.369 12.2716 20.4376 14.1902L21.4481 13.1796C19.1056 10.9957 16.2331 9.79466 13.0165 9.79666C9.78753 9.79816 6.94803 10.9991 4.59203 13.1807L5.60303 14.1912C7.63553 12.2741 10.224 11.2207 13.024 11.2212ZM13.0245 8.30016C16.799 8.30066 19.7406 9.66466 22.4985 12.1291L23.5006 11.1271C20.654 8.38066 16.9765 6.87766 13.0165 6.88666C9.00353 6.89616 5.45053 8.40066 2.54503 11.1327L3.54903 12.1366C6.15653 9.66116 9.41103 8.29966 13.0245 8.30016ZM13.0235 5.35466C17.3476 5.35516 21.4551 7.05766 24.5131 10.1157L25.5195 9.10816C22.196 5.78466 17.7301 3.93366 13.0306 3.93116C8.50303 3.92816 3.97403 5.65366 0.519531 9.10816L1.52703 10.1157C4.70153 6.94066 8.86303 5.35416 13.0235 5.35466ZM17.3331 17.2946C14.879 15.1016 11.1595 15.1007 8.70503 17.2941L13.0195 21.6082L17.3331 17.2946Z" fill="#444444"/>
</g>
</g>
</g>
<defs>
<clipPath id="clip0_2002_10808">
<rect width="25" height="25" fill="white" transform="translate(0.519531 0.27002)"/>
</clipPath>
<clipPath id="clip1_2002_10808">
<rect width="25" height="25" fill="white" transform="translate(0.519531 0.27002)"/>
</clipPath>
<clipPath id="clip2_2002_10808">
<rect width="25" height="25" fill="white" transform="translate(0.519531 0.27002)"/>
</clipPath>
</defs>
</svg>
