<svg width="25" height="25" viewBox="0 0 25 25" fill="none" xmlns="http://www.w3.org/2000/svg">
<g clip-path="url(#clip0_2002_10761)">
<g clip-path="url(#clip1_2002_10761)">
<g clip-path="url(#clip2_2002_10761)">
<path fill-rule="evenodd" clip-rule="evenodd" d="M6.50336 7.81482V11.7374H4.07744V5.6985C9.93584 3.86394 15.0757 3.93162 20.9394 5.7033V11.7379H18.5134V7.80762C14.1469 6.3777 10.8637 6.3249 6.50336 7.81482ZM17.1498 11.7374H7.86704V8.80938C11.1766 7.82202 13.8392 7.85658 17.1498 8.81322V11.7374ZM2.10368 20.9294H22.8963L23.1363 22.6776H24.5V11.7374H22.303V4.70298C15.441 2.45034 9.56528 2.36394 2.71376 4.71066V11.7374H0.5V22.6776H1.86368L2.10368 20.9294ZM1.86368 18.2443H23.1368V19.5662H1.86368V18.2443ZM1.86368 13.1011H23.1368V16.8801H1.86368V13.1011Z" fill="#444444"/>
</g>
</g>
</g>
<defs>
<clipPath id="clip0_2002_10761">
<rect width="24" height="24" fill="white" transform="translate(0.5 0.830078)"/>
</clipPath>
<clipPath id="clip1_2002_10761">
<rect width="24" height="24" fill="white" transform="translate(0.5 0.830078)"/>
</clipPath>
<clipPath id="clip2_2002_10761">
<rect width="24" height="24" fill="white" transform="translate(0.5 0.830078)"/>
</clipPath>
</defs>
</svg>
