<svg width="26" height="26" viewBox="0 0 26 26" fill="none" xmlns="http://www.w3.org/2000/svg">
<g clip-path="url(#clip0_2002_10835)">
<g clip-path="url(#clip1_2002_10835)">
<g clip-path="url(#clip2_2002_10835)">
<path d="M11.3023 14.1943C11.1236 13.5546 10.6117 13.0512 9.96191 12.8762V14.1943H11.3023Z" fill="black"/>
<path d="M25.0977 11.761C24.4831 8.55335 23.0442 3.29294 19.3998 3.39641C17.0441 3.46349 17.575 5.88106 13.5904 5.48745C13.5342 5.57245 12.6297 5.57245 12.5735 5.48745C8.58909 5.88106 9.11978 3.46349 6.76416 3.39641C3.11971 3.29266 1.68096 8.55335 1.06645 11.761C0.282909 15.8515 -0.189105 23.6638 4.41805 21.886C4.9343 21.6869 10.756 18.1322 11.4562 18.1322H14.7075C15.4079 18.1322 21.23 21.6857 21.7457 21.886C26.1811 23.6075 25.8811 15.8513 25.0978 11.761H25.0977ZM4.38242 10.0881C4.38242 9.09509 5.19958 8.29002 6.20756 8.29002C7.21569 8.29002 8.03277 9.09509 8.03277 10.0881C8.03277 11.0811 7.21569 11.8861 6.20756 11.8861C5.19937 11.8861 4.38221 11.0813 4.38221 10.0882L4.38242 10.0881ZM11.4081 15.1186L11.3867 15.2002C11.2019 15.8818 10.6553 16.4174 9.96194 16.5958L9.83805 16.625C9.71506 16.6484 9.58833 16.6617 9.45853 16.6617C9.3286 16.6617 9.20201 16.6484 9.07902 16.625L8.94117 16.5923C8.25437 16.4104 7.71388 15.8771 7.53041 15.2002L7.49506 15.0481C7.47367 14.9329 7.46083 14.8148 7.46083 14.6936C7.46083 14.5724 7.47367 14.4543 7.49506 14.339L7.52839 14.1947C7.70992 13.514 8.25173 12.9777 8.94117 12.7949L9.03937 12.77C9.17464 12.7415 9.31464 12.7256 9.45853 12.7256C9.60235 12.7256 9.74235 12.7415 9.8777 12.77L9.96194 12.7914C10.658 12.9704 11.206 13.5095 11.3887 14.1947L11.408 14.2687C11.4387 14.4057 11.4562 14.5475 11.4562 14.6936C11.4562 14.8395 11.4389 14.9818 11.4083 15.1186H11.4081ZM19.7533 8.61349C20.1495 8.61349 20.4707 8.92995 20.4707 9.32023C20.4707 9.71064 20.1495 10.027 19.7533 10.027C19.3571 10.027 19.0359 9.71064 19.0359 9.32023C19.0359 8.92995 19.3567 8.61349 19.7533 8.61349ZM16.7331 16.3614C15.7264 16.3614 14.9105 15.5574 14.9105 14.5657C14.9105 13.574 15.7264 12.7699 16.7331 12.7699C17.7401 12.7699 18.5561 13.574 18.5561 14.5657C18.5561 15.5574 17.7401 16.3615 16.7332 16.3615L16.7331 16.3614ZM18.3185 11.4406C17.9223 11.4406 17.6011 11.1241 17.6011 10.7337C17.6011 10.3434 17.9223 10.027 18.3185 10.027C18.7147 10.027 19.0359 10.3434 19.0359 10.7337C19.0359 11.124 18.7144 11.4406 18.3185 11.4406ZM19.7533 12.8538C19.3571 12.8538 19.0359 12.5373 19.0359 12.147C19.0359 11.7568 19.3571 11.4403 19.7533 11.4403C20.1495 11.4403 20.4707 11.7568 20.4707 12.147C20.4707 12.5373 20.1492 12.854 19.7533 12.854L19.7533 12.8538ZM21.188 11.4406C20.7919 11.4406 20.4707 11.1242 20.4707 10.7338C20.4707 10.3435 20.7919 10.027 21.188 10.027C21.5842 10.027 21.9055 10.3435 21.9055 10.7338C21.9055 11.1242 21.584 11.4408 21.1882 11.4408L21.188 11.4406Z" fill="black"/>
<path d="M9.96191 16.511C10.6091 16.3367 11.1196 15.8365 11.3002 15.2006H9.96191V16.511Z" fill="black"/>
<path d="M7.61719 15.2006C7.79649 15.832 8.30087 16.3299 8.94149 16.5075V15.2006H7.61719Z" fill="black"/>
<path d="M8.94162 12.8797C8.29843 13.0581 7.7926 13.5592 7.61523 14.1942H8.94162V12.8796V12.8797Z" fill="black"/>
</g>
</g>
</g>
<defs>
<clipPath id="clip0_2002_10835">
<rect width="25" height="25" fill="white" transform="translate(0.519531 0.27002)"/>
</clipPath>
<clipPath id="clip1_2002_10835">
<rect width="25" height="25" fill="white" transform="translate(0.519531 0.27002)"/>
</clipPath>
<clipPath id="clip2_2002_10835">
<rect width="25" height="18.75" fill="white" transform="translate(0.519531 3.39502)"/>
</clipPath>
</defs>
</svg>
