<svg width="26" height="26" viewBox="0 0 26 26" fill="none" xmlns="http://www.w3.org/2000/svg">
<g clip-path="url(#clip0_2002_10823)">
<g clip-path="url(#clip1_2002_10823)">
<g clip-path="url(#clip2_2002_10823)">
<path d="M10.5007 0.808288C15.5168 0.938559 19.7512 4.91181 20.4027 9.86209C20.6632 11.8161 20.2724 13.9005 19.2952 15.6591L25.1183 21.6516L21.7964 25.004L15.9077 19.0462C14.1488 20.0232 12.0642 20.414 10.1098 20.1535C5.15881 19.5021 1.18498 15.2683 1.05469 10.2529C0.924398 4.91181 5.15881 0.61288 10.5007 0.808288ZM9.91437 18.7205L18.9695 9.66667C18.2529 5.62831 14.67 2.37153 10.5007 2.24126C5.94054 2.11099 2.35758 5.69342 2.48787 10.2529C2.61816 14.4216 5.87538 18.004 9.91437 18.7205ZM19.0346 11.6208L11.8687 18.7857C12.5207 19.281 15.9345 18.0269 16.4773 17.5572L21.901 23.0194L23.269 21.6516L17.8071 16.2274C18.1693 15.5219 19.6101 11.6776 19.0346 11.6208Z" fill="black"/>
<path fill-rule="evenodd" clip-rule="evenodd" d="M15.9077 19.0462C14.1487 20.0232 12.0641 20.4141 10.1097 20.1536C5.15874 19.5022 1.18491 15.2684 1.05462 10.253C0.92433 4.91188 5.15874 0.612944 10.5006 0.80835C15.5167 0.938621 19.7512 4.91188 20.4027 9.86218C20.6632 11.8162 20.2723 13.9005 19.2952 15.6592L25.1182 21.6516L21.7964 25.0041L15.9077 19.0462ZM19.4263 15.6415L25.2673 21.6524L21.7963 25.1553L15.8884 19.1782C14.1247 20.1377 12.0467 20.519 10.0958 20.259C5.09516 19.6011 1.07998 15.3256 0.948272 10.2557C0.816535 4.85529 5.09934 0.504631 10.5039 0.702018C15.5743 0.833988 19.8502 4.84845 20.5081 9.8483C20.7682 11.7994 20.3865 13.8777 19.4263 15.6415ZM16.4827 17.4118L21.9012 22.8688L23.1183 21.6519L17.6769 16.2481L17.7124 16.1789C17.8895 15.8339 18.3381 14.7031 18.6709 13.6489C18.8373 13.122 18.9729 12.6202 19.0314 12.2488C19.0609 12.0616 19.0693 11.9164 19.0565 11.8203C19.0531 11.7953 19.0487 11.7762 19.044 11.7619L12.049 18.7558C12.1004 18.7712 12.1638 18.7824 12.2399 18.7883C12.3865 18.7997 12.5675 18.7904 12.7736 18.7633C13.1855 18.7091 13.684 18.586 14.1824 18.4318C14.6803 18.2777 15.1747 18.0937 15.5776 17.9194C15.9856 17.7429 16.286 17.5821 16.4076 17.4768L16.4827 17.4118ZM11.9655 18.8393C11.9286 18.8244 11.8962 18.8066 11.8687 18.7857L19.0346 11.6208C19.61 11.6777 18.1692 15.5219 17.807 16.2275L23.269 21.6516L21.9009 23.0195L16.4772 17.5573C15.9573 18.0071 12.8037 19.1765 11.9655 18.8393ZM18.9695 9.66675C18.2529 5.62835 14.6699 2.3716 10.5006 2.24133C5.94047 2.11106 2.35752 5.69351 2.48781 10.253C2.61809 14.4216 5.87531 18.0041 9.9143 18.7206L18.9695 9.66675ZM9.87845 18.606C5.91212 17.8755 2.72229 14.3472 2.59414 10.2498C2.46566 5.75159 5.9985 2.21922 10.4974 2.34766C14.5954 2.47577 18.1242 5.66516 18.8548 9.6309L9.87845 18.606Z" fill="black"/>
<path fill-rule="evenodd" clip-rule="evenodd" d="M9.5625 8.87269C9.5625 10.3918 10.7944 11.6238 12.3136 11.6238C13.8333 11.6238 15.0652 10.3918 15.0652 8.87269C15.0652 7.35301 13.8333 6.12109 12.3136 6.12109C10.7944 6.12109 9.5625 7.35354 9.5625 8.87269ZM13.5545 8.87264C13.5545 9.55774 12.9985 10.1131 12.3135 10.1131C11.6289 10.1131 11.0736 9.55774 11.0736 8.87264C11.0736 8.18806 11.6289 7.63221 12.3135 7.63221C12.9985 7.63221 13.5545 8.18705 13.5545 8.87264Z" fill="black"/>
</g>
</g>
</g>
<defs>
<clipPath id="clip0_2002_10823">
<rect width="25" height="25" fill="white" transform="translate(0.519531 0.27002)"/>
</clipPath>
<clipPath id="clip1_2002_10823">
<rect width="25" height="25" fill="white" transform="translate(0.519531 0.27002)"/>
</clipPath>
<clipPath id="clip2_2002_10823">
<rect width="25" height="25" fill="white" transform="translate(0.519531 0.27002)"/>
</clipPath>
</defs>
</svg>
