<svg width="25" height="25" viewBox="0 0 25 25" fill="none" xmlns="http://www.w3.org/2000/svg">
<g clip-path="url(#clip0_2002_10780)">
<g clip-path="url(#clip1_2002_10780)">
<g clip-path="url(#clip2_2002_10780)">
<mask id="mask0_2002_10780" style="mask-type:luminance" maskUnits="userSpaceOnUse" x="0" y="0" width="25" height="25">
<path d="M24.5 0.830078H0.5V24.8301H24.5V0.830078Z" fill="white"/>
</mask>
<g mask="url(#mask0_2002_10780)">
<path fill-rule="evenodd" clip-rule="evenodd" d="M21.824 5.64934L17.0072 2.62486C19.2651 1.38022 21.9814 3.06262 21.824 5.64934ZM7.99372 2.62486L3.17692 5.64934C3.01948 3.06262 5.7358 1.38022 7.99372 2.62486ZM6.06652 6.21862C5.73964 6.47542 5.42812 6.7519 5.13388 7.04566C3.2494 8.93014 2.08252 11.5356 2.08252 14.4122C2.08252 17.2884 3.2494 19.8934 5.13388 21.7783C5.32108 21.9655 5.51596 22.146 5.71708 22.3188L4.44652 24.7452H6.18268L7.12156 23.3354C8.69164 24.2839 10.5329 24.8302 12.5004 24.8302C14.4689 24.8302 16.3102 24.2834 17.8803 23.335L18.8192 24.7457H20.5553L19.2843 22.3188C19.4854 22.146 19.6798 21.966 19.867 21.7793C21.7515 19.8938 22.9184 17.2894 22.9184 14.4132C22.9184 11.5366 21.7515 8.9311 19.867 7.04662C19.5733 6.75286 19.2617 6.47638 18.9339 6.21862L19.279 5.6695L22.6438 7.78246C25.2204 2.3623 18.4337 -1.79066 14.7243 2.80822L18.1184 4.9399L17.8025 5.44294C16.423 4.62598 14.8385 4.11814 13.1446 4.01494V3.27862H14.1795V1.90342H10.8641V3.27862H11.8553V4.01494C10.1619 4.11814 8.5774 4.62646 7.19788 5.44342L6.88204 4.9399L10.2761 2.80822C6.56716 -1.79066 -0.219563 2.3623 2.3566 7.78198L5.7214 5.66902L6.06652 6.21862ZM11.8558 6.31078H13.1446V5.39254C15.3852 5.54998 17.4003 6.52438 18.8945 8.01862C20.3888 9.51286 21.3627 11.5284 21.5206 13.769H20.5635V15.0583H21.5206C21.3627 17.298 20.3888 19.313 18.895 20.8068C17.4008 22.301 15.3857 23.275 13.1456 23.4324V22.4542H11.8563V23.4324C9.61612 23.2745 7.60108 22.301 6.10636 20.8068C4.6126 19.3126 3.63868 17.298 3.48124 15.0578H4.375V13.7686H3.48076C3.6382 11.5284 4.6126 9.51334 6.10636 8.01862C7.60108 6.52438 9.61564 5.55094 11.8558 5.39302V6.31078ZM11.6475 16.6431L7.91468 12.4082L8.64428 11.6791L12.428 15.2897L11.7409 14.634L11.6475 16.6431L13.1979 16.0244L12.9492 9.54998H11.9307L11.6475 16.6431Z" fill="#444444"/>
</g>
</g>
</g>
</g>
<defs>
<clipPath id="clip0_2002_10780">
<rect width="24" height="24" fill="white" transform="translate(0.5 0.830078)"/>
</clipPath>
<clipPath id="clip1_2002_10780">
<rect width="24" height="24" fill="white" transform="translate(0.5 0.830078)"/>
</clipPath>
<clipPath id="clip2_2002_10780">
<rect width="24" height="24" fill="white" transform="translate(0.5 0.830078)"/>
</clipPath>
</defs>
</svg>
